<svg width="169" height="63" viewBox="0 0 169 63" fill="none" xmlns="http://www.w3.org/2000/svg">
<path d="M117.591 50.4616C115.437 50.4616 113.485 49.9077 111.737 48.7997C110.001 47.6795 108.623 46.036 107.601 43.8693C106.591 41.6903 106.087 39.0189 106.087 35.8551C106.087 32.6051 106.61 29.9029 107.656 27.7486C108.703 25.5819 110.094 23.9631 111.83 22.892C113.578 21.8087 115.492 21.267 117.572 21.267C119.161 21.267 120.484 21.5379 121.543 22.0795C122.614 22.6089 123.475 23.2737 124.128 24.0739C124.793 24.8617 125.297 25.6373 125.642 26.4006H125.882V12.1818H133.73V50H125.974V45.4574H125.642C125.273 46.2453 124.75 47.027 124.072 47.8026C123.408 48.5658 122.54 49.1998 121.469 49.7045C120.41 50.2093 119.117 50.4616 117.591 50.4616ZM120.084 44.2017C121.352 44.2017 122.423 43.857 123.297 43.1676C124.183 42.4659 124.86 41.4872 125.328 40.2315C125.808 38.9759 126.048 37.5047 126.048 35.8182C126.048 34.1316 125.814 32.6667 125.347 31.4233C124.879 30.1799 124.202 29.2197 123.315 28.5426C122.429 27.8655 121.352 27.527 120.084 27.527C118.791 27.527 117.702 27.8778 116.815 28.5795C115.929 29.2812 115.258 30.2538 114.803 31.4972C114.347 32.7405 114.119 34.1809 114.119 35.8182C114.119 37.4678 114.347 38.9266 114.803 40.1946C115.27 41.4503 115.941 42.4351 116.815 43.1491C117.702 43.8509 118.791 44.2017 120.084 44.2017ZM153.124 50.554C150.206 50.554 147.695 49.9631 145.59 48.7812C143.497 47.5871 141.884 45.9006 140.752 43.7216C139.619 41.5303 139.053 38.9389 139.053 35.9474C139.053 33.0298 139.619 30.4692 140.752 28.2656C141.884 26.062 143.479 24.3447 145.534 23.1136C147.603 21.8826 150.028 21.267 152.81 21.267C154.681 21.267 156.423 21.5687 158.036 22.1719C159.661 22.7628 161.077 23.6553 162.283 24.8494C163.502 26.0436 164.45 27.5455 165.127 29.3551C165.804 31.1525 166.142 33.2576 166.142 35.6705V37.831H142.192V32.956H158.738C158.738 31.8234 158.491 30.8201 157.999 29.946C157.507 29.072 156.823 28.3887 155.949 27.8963C155.087 27.3916 154.084 27.1392 152.939 27.1392C151.745 27.1392 150.686 27.4162 149.763 27.9702C148.852 28.5118 148.138 29.2443 147.621 30.1676C147.104 31.0786 146.839 32.0942 146.827 33.2145V37.8494C146.827 39.2528 147.086 40.4654 147.603 41.4872C148.132 42.509 148.877 43.2969 149.837 43.8509C150.797 44.4048 151.936 44.6818 153.253 44.6818C154.127 44.6818 154.927 44.5587 155.654 44.3125C156.38 44.0663 157.002 43.697 157.519 43.2045C158.036 42.7121 158.43 42.1089 158.701 41.3949L165.976 41.875C165.607 43.6231 164.85 45.1496 163.705 46.4545C162.572 47.7472 161.107 48.7566 159.31 49.483C157.525 50.197 155.463 50.554 153.124 50.554Z" fill="white"/>
<path d="M23.8026 23.0582C23.6548 21.5687 23.0208 20.4115 21.9006 19.5866C20.7803 18.7618 19.2599 18.3494 17.3395 18.3494C16.0346 18.3494 14.9328 18.5341 14.0341 18.9034C13.1354 19.2604 12.446 19.759 11.9659 20.3991C11.4981 21.0393 11.2642 21.7656 11.2642 22.5781C11.2396 23.2552 11.3812 23.8461 11.6889 24.3509C12.009 24.8556 12.446 25.2926 13 25.6619C13.554 26.0189 14.1941 26.3329 14.9205 26.6037C15.6468 26.8622 16.4223 27.0838 17.2472 27.2685L20.6449 28.081C22.2945 28.4503 23.8087 28.9427 25.1875 29.5582C26.5663 30.1738 27.7604 30.9309 28.7699 31.8295C29.7794 32.7282 30.5611 33.7869 31.1151 35.0057C31.6813 36.2244 31.9706 37.6217 31.983 39.1974C31.9706 41.5118 31.3797 43.5185 30.2102 45.2173C29.053 46.9039 27.3788 48.215 25.1875 49.1506C23.0085 50.0739 20.3802 50.5355 17.3026 50.5355C14.2495 50.5355 11.5904 50.0677 9.32528 49.1321C7.07244 48.1965 5.31203 46.8116 4.04403 44.9773C2.78835 43.1307 2.12973 40.8471 2.06818 38.1264H9.8054C9.89157 39.3944 10.2547 40.4531 10.8949 41.3026C11.5473 42.1397 12.4152 42.7737 13.4986 43.2045C14.5942 43.6231 15.8314 43.8324 17.2102 43.8324C18.5644 43.8324 19.7401 43.6354 20.7372 43.2415C21.7467 42.8475 22.5284 42.2997 23.0824 41.598C23.6364 40.8963 23.9134 40.09 23.9134 39.179C23.9134 38.3295 23.661 37.6155 23.1562 37.0369C22.6638 36.4583 21.9375 35.9659 20.9773 35.5597C20.0294 35.1534 18.866 34.7841 17.4872 34.4517L13.3693 33.4176C10.1809 32.642 7.66335 31.4295 5.81676 29.7798C3.97017 28.1302 3.05303 25.9081 3.06534 23.1136C3.05303 20.8239 3.66241 18.8234 4.89347 17.1122C6.13684 15.401 7.84186 14.0653 10.0085 13.1051C12.1752 12.1449 14.6373 11.6648 17.3949 11.6648C20.2017 11.6648 22.6515 12.1449 24.7443 13.1051C26.8494 14.0653 28.4867 15.401 29.6562 17.1122C30.8258 18.8234 31.429 20.8054 31.4659 23.0582H23.8026ZM45.0799 12.1818V50H37.2134V12.1818H45.0799ZM51.3814 50V21.6364H59.2479V50H51.3814ZM55.3331 17.9801C54.1636 17.9801 53.1603 17.5923 52.3232 16.8168C51.4983 16.0289 51.0859 15.0871 51.0859 13.9915C51.0859 12.9081 51.4983 11.9787 52.3232 11.2031C53.1603 10.4152 54.1636 10.0213 55.3331 10.0213C56.5026 10.0213 57.4998 10.4152 58.3246 11.2031C59.1617 11.9787 59.5803 12.9081 59.5803 13.9915C59.5803 15.0871 59.1617 16.0289 58.3246 16.8168C57.4998 17.5923 56.5026 17.9801 55.3331 17.9801Z" fill="white"/>
<path d="M92 20H96" stroke="white" stroke-width="3" stroke-linecap="round"/>
<path d="M73 44H77" stroke="white" stroke-width="3" stroke-linecap="round"/>
<path d="M71 26H90" stroke="white" stroke-width="3" stroke-linecap="round"/>
<path d="M81 32L96 32" stroke="white" stroke-width="3" stroke-linecap="round"/>
<path d="M71 38H83" stroke="white" stroke-width="3" stroke-linecap="round"/>
<path d="M69 20H77" stroke="white" stroke-width="3" stroke-linecap="round"/>
<path d="M84 44H92" stroke="white" stroke-width="3" stroke-linecap="round"/>
<path d="M67 32L73 32" stroke="white" stroke-width="3" stroke-linecap="round"/>
<path d="M92 38H100" stroke="white" stroke-width="3" stroke-linecap="round"/>
</svg>
